ISO-10303-21;
HEADER;
FILE_DESCRIPTION (( 'STEP AP203' ),
    '1' );
FILE_NAME ('zhamen0.25xie.STEP',
    '2026-07-23T02:25:32',
    ( '' ),
    ( '' ),
    'SwSTEP 2.0',
    'SolidWorks 2022',
    '' );
FILE_SCHEMA (( 'CONFIG_CONTROL_DESIGN' ));
ENDSEC;

DATA;
#1 = DATE_AND_TIME ( #132, #178 ) ;
#2 = ORIENTED_EDGE ( 'NONE', *, *, #225, .T. ) ;
#3 = LOCAL_TIME ( 10, 25, 32.00000000000000000, #265 ) ;
#4 = APPROVAL_ROLE ( '' ) ;
#5 = VERTEX_POINT ( 'NONE', #224 ) ;
#6 = ORIENTED_EDGE ( 'NONE', *, *, #180, .T. ) ;
#7 = APPLICATION_CONTEXT ( 'configuration controlled 3d designs of mechanical parts and assemblies' ) ;
#8 = VERTEX_POINT ( 'NONE', #94 ) ;
#9 = VERTEX_POINT ( 'NONE', #235 ) ;
#10 = DIRECTION ( 'NONE',  ( -0.000000000000000000, 1.000000000000000000, -0.000000000000000000 ) ) ;
#11 = LINE ( 'NONE', #234, #257 ) ;
#12 = CARTESIAN_POINT ( 'NONE',  ( 54.94999999999999574, 15.00000000000000000, 0.000000000000000000 ) ) ;
#13 = CARTESIAN_POINT ( 'NONE',  ( 62.24999999999995737, 11.25000000000000000, 0.000000000000000000 ) ) ;
#14 = LINE ( 'NONE', #159, #190 ) ;
#15 = CARTESIAN_POINT ( 'NONE',  ( 63.79999999999996874, 40.00000000000000711, 0.000000000000000000 ) ) ;
#16 = EDGE_CURVE ( 'NONE', #206, #255, #11, .T. ) ;
#17 = APPROVAL_DATE_TIME ( #1, #188 ) ;
#18 = PERSON_AND_ORGANIZATION_ROLE ( 'creator' ) ;
#19 = PERSON_AND_ORGANIZATION ( #220, #22 ) ;
#20 = VERTEX_POINT ( 'NONE', #30 ) ;
#21 = VECTOR ( 'NONE', #238, 1.000000000000000000 ) ;
#22 = ORGANIZATION ( '未指定', '未指定', '' ) ;
#23 = EDGE_CURVE ( 'NONE', #112, #74, #179, .T. ) ;
#24 = PERSON_AND_ORGANIZATION ( #220, #22 ) ;
#25 = ORIENTED_EDGE ( 'NONE', *, *, #126, .T. ) ;
#26 = DESIGN_CONTEXT ( 'detailed design', #192, 'design' ) ;
#27 = DIRECTION ( 'NONE',  ( -0.000000000000000000, 1.000000000000000000, -0.000000000000000000 ) ) ;
#28 = VECTOR ( 'NONE', #163, 1.000000000000000222 ) ;
#29 =( GEOMETRIC_REPRESENTATION_CONTEXT ( 3 ) GLOBAL_UNCERTAINTY_ASSIGNED_CONTEXT ( ( #142 ) ) GLOBAL_UNIT_ASSIGNED_CONTEXT ( ( #56, #124, #209 ) ) REPRESENTATION_CONTEXT ( 'NONE', 'WORKASPACE' ) );
#30 = CARTESIAN_POINT ( 'NONE',  ( 0.000000000000000000, 0.000000000000000000, 0.000000000000000000 ) ) ;
#31 = VERTEX_POINT ( 'NONE', #99 ) ;
#32 = ADVANCED_FACE ( 'NONE', ( #153 ), #177, .F. ) ;
#33 = LOCAL_TIME ( 10, 25, 32.00000000000000000, #216 ) ;
#34 = ORIENTED_EDGE ( 'NONE', *, *, #76, .T. ) ;
#35 = DIRECTION ( 'NONE',  ( -1.000000000000000000, 8.881784197001283878E-15, -0.000000000000000000 ) ) ;
#36 = DIRECTION ( 'NONE',  ( 2.471452993948174590E-16, 1.000000000000000000, 0.000000000000000000 ) ) ;
#37 = DIRECTION ( 'NONE',  ( 1.000000000000000000, -0.000000000000000000, -0.000000000000000000 ) ) ;
#38 = PRODUCT_DEFINITION ( '未知', '', #49, #26 ) ;
#39 = VECTOR ( 'NONE', #187, 1.000000000000000000 ) ;
#40 = VERTEX_POINT ( 'NONE', #154 ) ;
#41 = DATE_TIME_ROLE ( 'creation_date' ) ;
#42 = PERSON_AND_ORGANIZATION ( #220, #22 ) ;
#43 = CC_DESIGN_APPROVAL ( #188, ( #38 ) ) ;
#44 = ORIENTED_EDGE ( 'NONE', *, *, #208, .T. ) ;
#45 = EDGE_CURVE ( 'NONE', #253, #20, #71, .T. ) ;
#46 = ORIENTED_EDGE ( 'NONE', *, *, #210, .T. ) ;
#47 = CARTESIAN_POINT ( 'NONE',  ( 0.000000000000000000, 0.000000000000000000, 0.000000000000000000 ) ) ;
#48 = VECTOR ( 'NONE', #58, 1.000000000000000000 ) ;
#49 = PRODUCT_DEFINITION_FORMATION_WITH_SPECIFIED_SOURCE ( '任何', '', #172, .NOT_KNOWN. ) ;
#50 = DIRECTION ( 'NONE',  ( 1.000000000000000000, 0.000000000000000000, 0.000000000000000000 ) ) ;
#51 = CARTESIAN_POINT ( 'NONE',  ( 61.04999999999997584, 2.512300576127562302, 0.000000000000000000 ) ) ;
#52 = CARTESIAN_POINT ( 'NONE',  ( 50.00000000000000000, 15.00000000000000000, 0.000000000000000000 ) ) ;
#53 = CARTESIAN_POINT ( 'NONE',  ( 50.00000000000000000, 40.00000000000000711, 0.000000000000000000 ) ) ;
#54 = EDGE_CURVE ( 'NONE', #8, #40, #136, .T. ) ;
#55 = CARTESIAN_POINT ( 'NONE',  ( 64.59999999999999432, 0.000000000000000000, 0.000000000000000000 ) ) ;
#56 =( LENGTH_UNIT ( ) NAMED_UNIT ( * ) SI_UNIT ( $, .METRE. ) );
#57 = APPROVAL_PERSON_ORGANIZATION ( #61, #139, #4 ) ;
#58 = DIRECTION ( 'NONE',  ( 0.9990482215818577982, -0.04361938736533611805, 0.000000000000000000 ) ) ;
#59 = LINE ( 'NONE', #55, #48 ) ;
#60 = APPROVAL_ROLE ( '' ) ;
#61 = PERSON_AND_ORGANIZATION ( #220, #22 ) ;
#62 = LOCAL_TIME ( 10, 25, 32.00000000000000000, #252 ) ;
#63 = EDGE_CURVE ( 'NONE', #20, #134, #203, .T. ) ;
#64 = VERTEX_POINT ( 'NONE', #137 ) ;
#65 = PERSON_AND_ORGANIZATION ( #220, #22 ) ;
#66 = ORIENTED_EDGE ( 'NONE', *, *, #63, .T. ) ;
#67 = DATE_AND_TIME ( #107, #3 ) ;
#68 = VERTEX_POINT ( 'NONE', #157 ) ;
#69 = EDGE_CURVE ( 'NONE', #193, #196, #222, .T. ) ;
#70 = CARTESIAN_POINT ( 'NONE',  ( 60.84999999999997300, 40.00000000000000711, 0.000000000000000000 ) ) ;
#71 = LINE ( 'NONE', #47, #214 ) ;
#72 = VECTOR ( 'NONE', #144, 1.000000000000000000 ) ;
#73 = DIRECTION ( 'NONE',  ( -0.000000000000000000, 1.000000000000000000, -0.000000000000000000 ) ) ;
#74 = VERTEX_POINT ( 'NONE', #156 ) ;
#75 = CARTESIAN_POINT ( 'NONE',  ( 0.000000000000000000, 40.00000000000000000, 0.000000000000000000 ) ) ;
#76 = EDGE_CURVE ( 'NONE', #64, #31, #176, .T. ) ;
#77 = CARTESIAN_POINT ( 'NONE',  ( 54.94999999999999574, 15.00000000000000000, 0.000000000000000000 ) ) ;
#78 = CARTESIAN_POINT ( 'NONE',  ( 114.5999999999999659, 6.816952854574392262, 0.000000000000000000 ) ) ;
#79 = CARTESIAN_POINT ( 'NONE',  ( 64.59999999999999432, 0.000000000000000000, 0.000000000000000000 ) ) ;
#80 = PRODUCT_DEFINITION_SHAPE ( 'NONE', 'NONE',  #38 ) ;
#81 = VECTOR ( 'NONE', #101, 1.000000000000000000 ) ;
#82 = CARTESIAN_POINT ( 'NONE',  ( 62.24999999999997158, 9.000000000000000000, 0.000000000000000000 ) ) ;
#83 = APPROVAL_STATUS ( 'not_yet_approved' ) ;
#84 = DIRECTION ( 'NONE',  ( 0.000000000000000000, 0.000000000000000000, 1.000000000000000000 ) ) ;
#85 = ORIENTED_EDGE ( 'NONE', *, *, #133, .T. ) ;
#86 = EDGE_CURVE ( 'NONE', #175, #206, #241, .T. ) ;
#87 = APPROVAL_STATUS ( 'not_yet_approved' ) ;
#88 = PERSON_AND_ORGANIZATION_ROLE ( 'classification_officer' ) ;
#89 = VERTEX_POINT ( 'NONE', #70 ) ;
#90 = CC_DESIGN_DATE_AND_TIME_ASSIGNMENT ( #109, #148, ( #186 ) ) ;
#91 = DIRECTION ( 'NONE',  ( 1.000000000000000000, 0.000000000000000000, 0.000000000000000000 ) ) ;
#92 = VERTEX_POINT ( 'NONE', #141 ) ;
#93 = VECTOR ( 'NONE', #138, 1.000000000000000000 ) ;
#94 = CARTESIAN_POINT ( 'NONE',  ( 64.59999999999996589, 9.000000000000000000, 0.000000000000000000 ) ) ;
#95 = ORIENTED_EDGE ( 'NONE', *, *, #119, .T. ) ;
#96 = CARTESIAN_POINT ( 'NONE',  ( 0.000000000000000000, 0.000000000000000000, 0.000000000000000000 ) ) ;
#97 = VECTOR ( 'NONE', #10, 1.000000000000000000 ) ;
#98 = APPROVAL_PERSON_ORGANIZATION ( #65, #123, #191 ) ;
#99 = CARTESIAN_POINT ( 'NONE',  ( 61.04999999999997584, 11.25000000000000000, 0.000000000000000000 ) ) ;
#100 = CARTESIAN_POINT ( 'NONE',  ( 60.84999999999997300, 40.00000000000000711, 0.000000000000000000 ) ) ;
#101 = DIRECTION ( 'NONE',  ( -1.000000000000000000, -0.000000000000000000, -0.000000000000000000 ) ) ;
#102 = CARTESIAN_POINT ( 'NONE',  ( 54.94999999999999574, 8.742750258605317626, 0.000000000000000000 ) ) ;
#103 = CARTESIAN_POINT ( 'NONE',  ( 50.00000000000000000, 15.00000000000000000, 0.000000000000000000 ) ) ;
#104 = EDGE_CURVE ( 'NONE', #256, #175, #143, .T. ) ;
#105 = LINE ( 'NONE', #121, #201 ) ;
#106 = VECTOR ( 'NONE', #35, 1.000000000000000000 ) ;
#107 = CALENDAR_DATE ( 2026, 23, 7 ) ;
#108 = PERSON_AND_ORGANIZATION ( #220, #22 ) ;
#109 = DATE_AND_TIME ( #197, #62 ) ;
#110 = ORIENTED_EDGE ( 'NONE', *, *, #266, .T. ) ;
#111 = AXIS2_PLACEMENT_3D ( 'NONE', #149, #84, #91 ) ;
#112 = VERTEX_POINT ( 'NONE', #146 ) ;
#113 = SHAPE_DEFINITION_REPRESENTATION ( #80, #239 ) ;
#114 = ORIENTED_EDGE ( 'NONE', *, *, #262, .T. ) ;
#115 = VECTOR ( 'NONE', #50, 1.000000000000000000 ) ;
#116 = CARTESIAN_POINT ( 'NONE',  ( 57.58581427643105854, 9.178531346976994243, 0.000000000000000000 ) ) ;
#117 = LINE ( 'NONE', #100, #184 ) ;
#118 = ORIENTED_EDGE ( 'NONE', *, *, #86, .T. ) ;
#119 = EDGE_CURVE ( 'NONE', #40, #140, #161, .T. ) ;
#120 = DIRECTION ( 'NONE',  ( -0.000000000000000000, -1.000000000000000000, -0.000000000000000000 ) ) ;
#121 = CARTESIAN_POINT ( 'NONE',  ( 60.84999999999997300, 9.000000000000000000, 0.000000000000000000 ) ) ;
#122 = CARTESIAN_POINT ( 'NONE',  ( 62.24999999999995737, 11.25000000000000000, 0.000000000000000000 ) ) ;
#123 = APPROVAL ( #83, '未指定' ) ;
#124 =( NAMED_UNIT ( * ) PLANE_ANGLE_UNIT ( ) SI_UNIT ( $, .RADIAN. ) );
#125 = COORDINATED_UNIVERSAL_TIME_OFFSET ( 8, 0, .AHEAD. ) ;
#126 = EDGE_CURVE ( 'NONE', #92, #112, #264, .T. ) ;
#127 = DATE_AND_TIME ( #128, #202 ) ;
#128 = CALENDAR_DATE ( 2026, 23, 7 ) ;
#129 = SECURITY_CLASSIFICATION_LEVEL ( 'unclassified' ) ;
#130 = VECTOR ( 'NONE', #254, 1.000000000000000000 ) ;
#131 = CC_DESIGN_APPROVAL ( #123, ( #186 ) ) ;
#132 = CALENDAR_DATE ( 2026, 23, 7 ) ;
#133 = EDGE_CURVE ( 'NONE', #31, #68, #229, .T. ) ;
#134 = VERTEX_POINT ( 'NONE', #79 ) ;
#135 = PRODUCT_RELATED_PRODUCT_CATEGORY ( 'detail', '', ( #172 ) ) ;
#136 = LINE ( 'NONE', #219, #97 ) ;
#137 = CARTESIAN_POINT ( 'NONE',  ( 61.04999999999997584, 2.512300576127562302, 0.000000000000000000 ) ) ;
#138 = DIRECTION ( 'NONE',  ( 0.000000000000000000, 1.000000000000000000, 0.000000000000000000 ) ) ;
#139 = APPROVAL ( #168, '未指定' ) ;
#140 = VERTEX_POINT ( 'NONE', #15 ) ;
#141 = CARTESIAN_POINT ( 'NONE',  ( 63.79999999999996874, 9.000000000000000000, 0.000000000000000000 ) ) ;
#142 = UNCERTAINTY_MEASURE_WITH_UNIT (LENGTH_MEASURE( 1.000000000000000082E-05 ), #56, 'distance_accuracy_value', 'NONE');
#143 = LINE ( 'NONE', #77, #147 ) ;
#144 = DIRECTION ( 'NONE',  ( -0.9769338980596501409, 0.2135419369163282510, 0.000000000000000000 ) ) ;
#145 = LINE ( 'NONE', #122, #236 ) ;
#146 = CARTESIAN_POINT ( 'NONE',  ( 62.24999999999997158, 9.000000000000000000, 0.000000000000000000 ) ) ;
#147 = VECTOR ( 'NONE', #260, 1.000000000000000000 ) ;
#148 = DATE_TIME_ROLE ( 'classification_date' ) ;
#149 = CARTESIAN_POINT ( 'NONE',  ( 0.000000000000000000, 0.000000000000000000, 0.000000000000000000 ) ) ;
#150 = ORIENTED_EDGE ( 'NONE', *, *, #16, .T. ) ;
#151 = MECHANICAL_CONTEXT ( 'NONE', #7, 'mechanical' ) ;
#152 = CC_DESIGN_PERSON_AND_ORGANIZATION_ASSIGNMENT ( #251, #232, ( #38 ) ) ;
#153 = FACE_OUTER_BOUND ( 'NONE', #233, .T. ) ;
#154 = CARTESIAN_POINT ( 'NONE',  ( 64.59999999999996589, 40.00000000000000000, 0.000000000000000000 ) ) ;
#155 = DIRECTION ( 'NONE',  ( -0.000000000000000000, -1.000000000000000000, -0.000000000000000000 ) ) ;
#156 = CARTESIAN_POINT ( 'NONE',  ( 62.24999999999996447, 2.250000000000000000, 0.000000000000000000 ) ) ;
#157 = CARTESIAN_POINT ( 'NONE',  ( 62.24999999999995737, 11.25000000000000000, 0.000000000000000000 ) ) ;
#158 = EDGE_CURVE ( 'NONE', #255, #253, #14, .T. ) ;
#159 = CARTESIAN_POINT ( 'NONE',  ( 0.000000000000000000, 40.00000000000000000, 0.000000000000000000 ) ) ;
#160 = VECTOR ( 'NONE', #37, 1.000000000000000000 ) ;
#161 = LINE ( 'NONE', #189, #106 ) ;
#162 = CARTESIAN_POINT ( 'NONE',  ( 54.94999999999999574, 11.19999999999999929, 0.000000000000000000 ) ) ;
#163 = DIRECTION ( 'NONE',  ( -0.9990482215818576872, 0.04361938736533609029, -0.000000000000000000 ) ) ;
#164 = AXIS2_PLACEMENT_3D ( 'NONE', #116, #181, #259 ) ;
#165 = APPROVAL_PERSON_ORGANIZATION ( #230, #188, #60 ) ;
#166 = CARTESIAN_POINT ( 'NONE',  ( 54.94999999999999574, 11.19999999999999929, 0.000000000000000000 ) ) ;
#167 = ORIENTED_EDGE ( 'NONE', *, *, #54, .T. ) ;
#168 = APPROVAL_STATUS ( 'not_yet_approved' ) ;
#169 = ORIENTED_EDGE ( 'NONE', *, *, #185, .T. ) ;
#170 = APPLICATION_PROTOCOL_DEFINITION ( 'international standard', 'config_control_design', 1994, #192 ) ;
#171 = CC_DESIGN_PERSON_AND_ORGANIZATION_ASSIGNMENT ( #42, #249, ( #49 ) ) ;
#172 = PRODUCT ( 'zhamen0.25xie', 'zhamen0.25xie', '', ( #151 ) ) ;
#173 = ORIENTED_EDGE ( 'NONE', *, *, #69, .T. ) ;
#174 = PERSON_AND_ORGANIZATION_ROLE ( 'design_owner' ) ;
#175 = VERTEX_POINT ( 'NONE', #12 ) ;
#176 = LINE ( 'NONE', #51, #93 ) ;
#177 = PLANE ( 'NONE',  #164 ) ;
#178 = LOCAL_TIME ( 10, 25, 32.00000000000000000, #211 ) ;
#179 = LINE ( 'NONE', #200, #21 ) ;
#180 = EDGE_CURVE ( 'NONE', #5, #256, #228, .T. ) ;
#181 = DIRECTION ( 'NONE',  ( 0.000000000000000000, 0.000000000000000000, -1.000000000000000000 ) ) ;
#182 = CARTESIAN_POINT ( 'NONE',  ( 62.24999999999996447, 2.250000000000000000, 0.000000000000000000 ) ) ;
#183 = CARTESIAN_POINT ( 'NONE',  ( 64.59999999999996589, 9.000000000000000000, 0.000000000000000000 ) ) ;
#184 = VECTOR ( 'NONE', #247, 1.000000000000000000 ) ;
#185 = EDGE_CURVE ( 'NONE', #140, #92, #263, .T. ) ;
#186 = SECURITY_CLASSIFICATION ( '', '', #129 ) ;
#187 = DIRECTION ( 'NONE',  ( -0.000000000000000000, -1.000000000000000000, -0.000000000000000000 ) ) ;
#188 = APPROVAL ( #87, '未指定' ) ;
#189 = CARTESIAN_POINT ( 'NONE',  ( 63.79999999999996874, 40.00000000000000711, 0.000000000000000000 ) ) ;
#190 = VECTOR ( 'NONE', #226, 1.000000000000000000 ) ;
#191 = APPROVAL_ROLE ( '' ) ;
#192 = APPLICATION_CONTEXT ( 'configuration controlled 3d designs of mechanical parts and assemblies' ) ;
#193 = VERTEX_POINT ( 'NONE', #261 ) ;
#194 = APPROVAL_DATE_TIME ( #248, #123 ) ;
#195 = APPLICATION_PROTOCOL_DEFINITION ( 'international standard', 'config_control_design', 1994, #7 ) ;
#196 = VERTEX_POINT ( 'NONE', #78 ) ;
#197 = CALENDAR_DATE ( 2026, 23, 7 ) ;
#198 = ORIENTED_EDGE ( 'NONE', *, *, #45, .T. ) ;
#199 = CC_DESIGN_PERSON_AND_ORGANIZATION_ASSIGNMENT ( #19, #18, ( #49 ) ) ;
#200 = CARTESIAN_POINT ( 'NONE',  ( 62.24999999999996447, 2.250000000000000000, 0.000000000000000000 ) ) ;
#201 = VECTOR ( 'NONE', #120, 1.000000000000000000 ) ;
#202 = LOCAL_TIME ( 10, 25, 32.00000000000000000, #125 ) ;
#203 = LINE ( 'NONE', #96, #115 ) ;
#204 = CARTESIAN_POINT ( 'NONE',  ( 114.5999999999999659, 6.816952854574392262, 0.000000000000000000 ) ) ;
#205 = CC_DESIGN_SECURITY_CLASSIFICATION ( #186, ( #49 ) ) ;
#206 = VERTEX_POINT ( 'NONE', #103 ) ;
#207 = LINE ( 'NONE', #183, #28 ) ;
#208 = EDGE_CURVE ( 'NONE', #89, #5, #105, .T. ) ;
#209 =( NAMED_UNIT ( * ) SI_UNIT ( $, .STERADIAN. ) SOLID_ANGLE_UNIT ( ) );
#210 = EDGE_CURVE ( 'NONE', #196, #8, #207, .T. ) ;
#211 = COORDINATED_UNIVERSAL_TIME_OFFSET ( 8, 0, .AHEAD. ) ;
#212 = CC_DESIGN_PERSON_AND_ORGANIZATION_ASSIGNMENT ( #24, #88, ( #186 ) ) ;
#213 = CALENDAR_DATE ( 2026, 23, 7 ) ;
#214 = VECTOR ( 'NONE', #155, 1.000000000000000000 ) ;
#215 = CC_DESIGN_APPROVAL ( #139, ( #49 ) ) ;
#216 = COORDINATED_UNIVERSAL_TIME_OFFSET ( 8, 0, .AHEAD. ) ;
#217 = ORIENTED_EDGE ( 'NONE', *, *, #23, .T. ) ;
#218 = OPEN_SHELL ( 'NONE', ( #32 ) ) ;
#219 = CARTESIAN_POINT ( 'NONE',  ( 64.59999999999996589, 40.00000000000000000, 0.000000000000000000 ) ) ;
#220 = PERSON ( '未指定', '未指定', '未指定', ('未指定'), ('未指定'), ('未指定') ) ;
#221 = SHELL_BASED_SURFACE_MODEL ( 'NONE', ( #218 ) );
#222 = LINE ( 'NONE', #204, #245 ) ;
#223 = CC_DESIGN_PERSON_AND_ORGANIZATION_ASSIGNMENT ( #108, #174, ( #172 ) ) ;
#224 = CARTESIAN_POINT ( 'NONE',  ( 60.84999999999997300, 9.000000000000000000, 0.000000000000000000 ) ) ;
#225 = EDGE_CURVE ( 'NONE', #9, #89, #117, .T. ) ;
#226 = DIRECTION ( 'NONE',  ( -1.000000000000000000, -1.421085471520200401E-16, -0.000000000000000000 ) ) ;
#227 = CARTESIAN_POINT ( 'NONE',  ( 63.79999999999996874, 9.000000000000000000, 0.000000000000000000 ) ) ;
#228 = B_SPLINE_CURVE_WITH_KNOTS ( 'NONE', 3,
 ( #246, #244, #102, #166 ),
 .UNSPECIFIED., .F., .F.,
 ( 4, 4 ),
 ( 0.000000000000000000, 1.000000000000000000 ),
 .UNSPECIFIED. ) ;
#229 = LINE ( 'NONE', #13, #160 ) ;
#230 = PERSON_AND_ORGANIZATION ( #220, #22 ) ;
#231 = APPROVAL_DATE_TIME ( #67, #139 ) ;
#232 = PERSON_AND_ORGANIZATION_ROLE ( 'creator' ) ;
#233 = EDGE_LOOP ( 'NONE', ( #198, #66, #258, #173, #46, #167, #95, #169, #25, #217, #110, #34, #85, #114, #2, #44, #6, #240, #118, #150, #250 ) ) ;
#234 = CARTESIAN_POINT ( 'NONE',  ( 50.00000000000000000, 29.00000000000000000, 0.000000000000000000 ) ) ;
#235 = CARTESIAN_POINT ( 'NONE',  ( 62.24999999999996447, 40.00000000000000000, 0.000000000000000000 ) ) ;
#236 = VECTOR ( 'NONE', #36, 1.000000000000000000 ) ;
#237 = EDGE_CURVE ( 'NONE', #134, #193, #59, .T. ) ;
#238 = DIRECTION ( 'NONE',  ( -1.052655904829777995E-15, -1.000000000000000000, -0.000000000000000000 ) ) ;
#239 = MANIFOLD_SURFACE_SHAPE_REPRESENTATION ( 'zhamen0.25xie', ( #221, #111 ), #29 ) ;
#240 = ORIENTED_EDGE ( 'NONE', *, *, #104, .T. ) ;
#241 = LINE ( 'NONE', #52, #130 ) ;
#242 = CC_DESIGN_DATE_AND_TIME_ASSIGNMENT ( #127, #41, ( #38 ) ) ;
#243 = LINE ( 'NONE', #182, #72 ) ;
#244 = CARTESIAN_POINT ( 'NONE',  ( 60.01217140381618265, 9.000000000000001776, 0.000000000000000000 ) ) ;
#245 = VECTOR ( 'NONE', #73, 1.000000000000000000 ) ;
#246 = CARTESIAN_POINT ( 'NONE',  ( 60.84999999999997300, 9.000000000000000000, 0.000000000000000000 ) ) ;
#247 = DIRECTION ( 'NONE',  ( -1.000000000000000000, 5.075305255429317920E-15, -0.000000000000000000 ) ) ;
#248 = DATE_AND_TIME ( #213, #33 ) ;
#249 = PERSON_AND_ORGANIZATION_ROLE ( 'design_supplier' ) ;
#250 = ORIENTED_EDGE ( 'NONE', *, *, #158, .T. ) ;
#251 = PERSON_AND_ORGANIZATION ( #220, #22 ) ;
#252 = COORDINATED_UNIVERSAL_TIME_OFFSET ( 8, 0, .AHEAD. ) ;
#253 = VERTEX_POINT ( 'NONE', #75 ) ;
#254 = DIRECTION ( 'NONE',  ( -1.000000000000000000, -0.000000000000000000, -0.000000000000000000 ) ) ;
#255 = VERTEX_POINT ( 'NONE', #53 ) ;
#256 = VERTEX_POINT ( 'NONE', #162 ) ;
#257 = VECTOR ( 'NONE', #27, 1.000000000000000000 ) ;
#258 = ORIENTED_EDGE ( 'NONE', *, *, #237, .T. ) ;
#259 = DIRECTION ( 'NONE',  ( -1.000000000000000000, 0.000000000000000000, -0.000000000000000000 ) ) ;
#260 = DIRECTION ( 'NONE',  ( -0.000000000000000000, 1.000000000000000000, -0.000000000000000000 ) ) ;
#261 = CARTESIAN_POINT ( 'NONE',  ( 114.5999999999999659, -2.183047145425607738, 0.000000000000000000 ) ) ;
#262 = EDGE_CURVE ( 'NONE', #68, #9, #145, .T. ) ;
#263 = LINE ( 'NONE', #227, #39 ) ;
#264 = LINE ( 'NONE', #82, #81 ) ;
#265 = COORDINATED_UNIVERSAL_TIME_OFFSET ( 8, 0, .AHEAD. ) ;
#266 = EDGE_CURVE ( 'NONE', #74, #64, #243, .T. ) ;
ENDSEC;
END-ISO-10303-21;
